<svg viewBox="0 0 500 500" xmlns="http://www.w3.org/2000/svg"><path d="m209.493 60.908v8h-4.2c-3.7 0-14.9 1.5-26.9 3.6l-3.7.6-2.2-6.8c-1.2-3.8-2.6-7.2-2.9-7.6-.8-.9-16.1 4-16.1 5.1 0 .4.9 3.4 2 6.6 2.6 7.5 2.5 8.2-.6 8.9-1.5.4-7.5 2.9-13.4 5.5l-10.8 4.8-5.6-5.6-5.6-5.6-6.2 6.2-6.2 6.3 4.2 4.3 4.2 4.3-2.9 1.7c-3.9 2.3-13.6 10-18.9 15.1l-4.2 4-5-4.9-5-5-6.2 6.3-6.3 6.2 4.8 4.8c2.6 2.6 4.7 5.1 4.7 5.6s-1.7 2.9-3.9 5.5c-2.1 2.5-6 7.9-8.6 11.8-2.6 4-5 7.3-5.2 7.3s-3.1-1.8-6.3-4-6.1-4-6.4-4c-.4 0-6.8 9-9 12.7-.4.8 1.8 2.9 6.4 6 5 3.2 7 5.2 6.6 6.2-.2.9-2.1 5.4-4 10.1-2 4.7-4.8 13-6.3 18.3l-2.7 9.7h-9.1c-10.3 0-15.1 1.7-20.2 7.1-5.9 6.2-6.3 8.5-6.3 33.1 0 24.9.5 27.3 7.1 33.5 5.2 4.9 9.6 6.3 19.7 6.3h8.8l2.7 9.7c1.5 5.3 4.3 13.6 6.3 18.3 1.9 4.7 3.8 9.2 4 10.1.4 1-1.6 3-6.6 6.2-4.6 3.1-6.8 5.2-6.4 6 2.2 3.7 8.6 12.7 9 12.7.3 0 3.2-1.8 6.4-4s6.1-4 6.3-4c.3 0 2 2.3 3.8 5.2 1.8 2.8 5.7 8.2 8.6 12s5.3 7.1 5.3 7.5-2.1 2.9-4.7 5.5l-4.8 4.8 6.3 6.2 6.2 6.3 5-5 5-4.9 4.2 4c5.3 5.1 15 12.8 18.9 15.1l2.9 1.7-4.2 4.3-4.2 4.3 6.2 6.3 6.2 6.2 5.6-5.7 5.7-5.6 8.1 3.7c4.4 2.1 10.5 4.6 13.4 5.6 2.8 1.1 5.2 2.4 5.2 3 0 .7-.9 3.8-2 7s-2 6.2-2 6.6c0 1.1 15.3 6 16.1 5.1.3-.4 1.7-3.8 2.9-7.6l2.2-6.8 3.7.6c12 2.1 23.2 3.6 26.9 3.6h4.2v16h16v-16h4.3c3.6 0 14.8-1.5 26.8-3.6l3.7-.6 2.2 6.8c1.2 3.8 2.6 7.2 2.9 7.6.8.9 16.1-4 16.1-5.1 0-.4-.9-3.4-2-6.6-2.6-7.5-2.5-8.2.6-8.9 1.5-.4 7.5-2.9 13.4-5.5l10.8-4.8 5.6 5.6 5.6 5.6 6.2-6.2 6.2-6.3-4.2-4.3-4.2-4.3 2.9-1.7c3.9-2.3 13.6-10 18.9-15.1l4.2-4 5 4.9 5 5 6.2-6.3 6.3-6.2-4.8-4.8c-2.6-2.6-4.7-5.1-4.7-5.6s1.7-2.9 3.9-5.5c2.1-2.5 6-7.9 8.6-11.9 2.6-3.9 5-7.2 5.2-7.2s3.1 1.8 6.3 4 6.1 4 6.4 4c.4 0 6.8-9 9-12.7.4-.8-1.8-2.9-6.4-5.9-3.8-2.6-7-4.9-7-5.1s1.2-3.2 2.6-6.6c4.3-10.1 8.2-22.2 10.4-32.5 1.2-5.3 2.3-9.8 2.5-10s5 2.3 10.7 5.6c25.9 15 37.4 19.1 55.9 19.9 13.5.7 17.3-.3 23.2-5.6 7.8-7 7.7-6.2 7.7-54.1s.1-47.1-7.7-54.1c-5.9-5.3-9.7-6.3-23.2-5.6-18.7.8-30.3 5-57.1 20.5-5.7 3.3-10.8 5.8-11.2 5.6-.4-.3-.8-1.3-.8-2.3 0-3.1-4.9-19.1-9.1-29.5-2.1-5.4-3.9-9.9-3.9-10.1 0-.1 3.2-2.3 7-4.9 4.6-3 6.8-5.1 6.4-5.9-2.2-3.7-8.6-12.7-9-12.7-.3 0-3.2 1.8-6.4 4s-6.1 4-6.3 4-2.6-3.3-5.2-7.3c-2.6-3.9-6.5-9.3-8.6-11.8-2.2-2.6-3.9-5-3.9-5.5s2.1-3 4.7-5.6l4.8-4.8-6.3-6.2-6.2-6.3-5 5-5 4.9-4.2-4c-5.3-5.1-15-12.8-18.9-15.1l-2.9-1.7 4.2-4.3 4.2-4.3-6.2-6.3-6.2-6.2-5.6 5.6-5.6 5.6-10.8-4.8c-5.9-2.6-11.9-5.1-13.4-5.5-3.1-.7-3.2-1.4-.6-8.9 1.1-3.2 2-6.2 2-6.6 0-1.1-15.3-6-16.1-5.1-.3.4-1.7 3.8-2.9 7.6l-2.2 6.8-3.7-.6c-12-2.1-23.2-3.6-26.8-3.6h-4.3v-16h-16zm22.9 25.5c19 1.1 42.2 7.8 62.1 18.1 15.2 7.9 27.9 17.3 41 30.4 23.3 23.3 38 49.9 45.6 82.5 2.7 11.3 2.8 13.3 2.9 35 0 25.4-1.2 33.5-7.6 52.7-6.3 18.7-19.3 42-30.7 54.8l-3.9 4.5-8.4-7.5c-22.9-20.6-43.3-33.9-68.9-44.8-31.3-13.4-59.9-19.2-95-19.2-34.7 0-63.1 5.6-93.8 18.7-5.9 2.4-11.2 4.7-11.8 4.9-1.6.7-6.5-13.2-10-28.1-2.7-11.4-2.9-13.2-2.9-35.5s.2-24.1 2.9-35.5c7.6-32.7 22.3-59.2 45.6-82.5 23.4-23.4 50.6-38.4 82.4-45.5 11.1-2.4 31-4.5 38.1-3.8 1.7.1 7.2.5 12.4.8zm247.7 124.1c1.2 2.8 2 10.3 1.2 10.5-1.2.2-65.4 5.5-65.5 5.4-.2-.1 5.1-3.2 11.8-7 14.5-8.2 25.7-12.2 37-13.3 10.4-1 13.6-.1 15.5 4.4zm-446 22.1c-.3 2.1-.6 5.7-.6 8v4.3h-16v-3.4c0-8.6 4-12.5 12.9-12.6h4.4zm447.4 16.3v11l-3.7-.5c-2.1-.3-18.2-1.6-35.8-3-44.3-3.5-40.5-2.8-40.5-7.6 0-2.1.3-3.9.8-4 41.8-3.6 77-6.7 78-6.8.9-.1 1.2 2.7 1.2 10.9zm-448 16.2c0 2.4.3 6 .6 8l.7 3.8h-4c-9.1 0-13.3-4-13.3-12.5v-3.5h16zm414 8.8c36.1 2.8 34 2.4 34 6.4 0 4.8-1.9 9.5-4.3 10.8-4.4 2.3-21.7.1-32.8-4.2-4.9-1.9-22.4-11.3-27.3-14.6-1.7-1.2-1.6-1.3 1.5-.9 1.9.3 14.9 1.4 28.9 2.5zm-261 36.4c33.8 1.8 73.5 15.3 104.5 35.4 10.5 6.8 27.1 20 33.5 26.7l4.5 4.7-4.5 4c-7.2 6.4-25.7 18.3-36 23.2-38.9 18.1-83.1 20.8-123.5 7.5-12.6-4.1-33.2-14.6-44.5-22.6-17.1-12.2-36.6-33.6-47.6-52.1l-2.5-4.3 7.5-3.4c16.6-7.7 37.4-14 56.1-17.1 10.8-1.7 31.2-3.2 38.5-2.7 2.5.1 8.8.5 14 .7z"/><path d="m193.493 116.908v8h16v-16h-16zm40 0v8h16v-16h-16zm56 24v8h16v-16h-16zm-128 8v8h16v-16h-16zm-53.7 9.9c-10.5 3.9-18 10.7-23.1 21.1-2.5 5-2.7 6.5-2.7 17 0 10.7.2 11.9 2.9 17.5 3.8 7.7 11.4 15.3 19.1 19.1 5.6 2.7 6.8 2.9 17.5 2.9s11.9-.2 17.5-2.9c7.7-3.8 15.3-11.4 19.1-19.1 2.7-5.6 2.9-6.8 2.9-17.5s-.2-11.9-2.9-17.5c-3.8-7.7-11.4-15.3-19.1-19-5.2-2.6-7.3-3-16-3.3-7.9-.2-11.1.2-15.2 1.7zm22.5 16.7c15.3 6.3 19.1 26.7 7.1 38.1-14.7 13.9-38.9 3.6-38.9-16.7 0-9 5.1-16.9 13.5-21.3 3.9-2.1 13.5-2.1 18.3-.1z"/><path d="m112.693 182.908c-4.8 3-7.2 7.5-7.2 14 0 10 6 16 16 16 3.7 0 6.6-.6 8.8-2 4.8-3 7.2-7.5 7.2-14 0-10-6-16-16-16-3.7 0-6.6.6-8.8 2zm96.8-2v8h16v-16h-16zm88 0v8h16v-16h-16zm-65 33.4c-11.5 2.1-18.5 4.1-44.8 12.8-26 8.5-30 10.7-32.8 17.5-1.8 4.2-1.8 12.4 0 16.6 2.8 6.8 6.8 9 32.8 17.6 37.8 12.4 48.3 14.6 69 14 11.2-.4 12.8-.7 18.3-3.3 7.7-3.8 15.3-11.4 19.1-19.1 2.7-5.6 2.9-6.8 2.9-17.5s-.2-11.9-2.9-17.5c-1.7-3.3-5.3-8.3-8-11.1-2.8-2.7-7.8-6.3-11.1-8-5.7-2.8-6.7-2.9-20.5-3.1-8.5-.1-17.6.4-22 1.1zm35.7 18c13.8 7.2 16.5 26.6 5.2 37.3-5.3 5-10 6.5-20.3 6.4-15-.2-26.3-2.6-55.3-12.2-22.7-7.5-27.3-9.3-27.3-10.9 0-1.5 4.5-3.3 25.8-10.4 29-9.7 36.5-11.5 50.7-12.5 10.7-.7 16.8 0 21.2 2.3zm45.3-3.4v8h16v-16h-16zm-248 24v8h16v-16h-16zm288 0v8h16v-16h-16zm-248 16v8h16v-16h-16zm200 16v8h16v-16h-16zm32 24v8h16v-16h-16z"/></svg>